<svg width="80" height="80" viewBox="0 0 80 80" fill="none" xmlns="http://www.w3.org/2000/svg">
<path d="M40 80C62.0914 80 80 62.0914 80 40C80 17.9086 62.0914 0 40 0C17.9086 0 0 17.9086 0 40C0 62.0914 17.9086 80 40 80Z" fill="#2D3B36"/>
<path d="M1 39.0007H0L1.74846e-07 41.0007H1V39.0007ZM41.7071 40.7078C42.0976 40.3173 42.0976 39.6841 41.7071 39.2936L35.3431 32.9296C34.9526 32.5391 34.3195 32.5391 33.9289 32.9296C33.5384 33.3202 33.5384 33.9533 33.9289 34.3438L39.5858 40.0007L33.9289 45.6576C33.5384 46.0481 33.5384 46.6812 33.9289 47.0718C34.3195 47.4623 34.9526 47.4623 35.3431 47.0718L41.7071 40.7078ZM1 40.0007V41.0007H41V40.0007V39.0007H1V40.0007Z" fill="#FEFFF4"/>
</svg>
