<svg width="80" height="80" viewBox="0 0 80 80" fill="none" xmlns="http://www.w3.org/2000/svg">
<path d="M40 79.5C61.8152 79.5 79.5 61.8152 79.5 40C79.5 18.1848 61.8152 0.5 40 0.5C18.1848 0.5 0.5 18.1848 0.5 40C0.5 61.8152 18.1848 79.5 40 79.5Z" stroke="#2D3B36"/>
<path d="M39.2929 39.2936C38.9024 39.6841 38.9024 40.3173 39.2929 40.7078L45.6569 47.0718C46.0474 47.4623 46.6805 47.4623 47.0711 47.0718C47.4616 46.6812 47.4616 46.0481 47.0711 45.6576L41.4142 40.0007L47.0711 34.3438C47.4616 33.9533 47.4616 33.3202 47.0711 32.9296C46.6805 32.5391 46.0474 32.5391 45.6569 32.9296L39.2929 39.2936ZM40 40.0007V41.0007H80V40.0007V39.0007H40V40.0007Z" fill="#2D3B36"/>
</svg>
