<svg width="20" height="20" viewBox="0 0 20 20" fill="none" xmlns="http://www.w3.org/2000/svg">
<path d="M3.16184 10.0242C3.60949 7.78608 3.8333 6.66697 4.57286 5.94619C4.70955 5.81297 4.85743 5.69175 5.01486 5.58384C5.86668 5 7.00794 5 9.29048 5H10.7096C12.9921 5 14.1334 5 14.9852 5.58384C15.1426 5.69175 15.2905 5.81297 15.4272 5.94619C16.1667 6.66697 16.3906 7.78608 16.8382 10.0242C17.4809 13.2376 17.8022 14.8442 17.0625 15.9827C16.9286 16.1889 16.7722 16.3796 16.5964 16.5513C15.6251 17.5 13.9866 17.5 10.7096 17.5H9.29048C6.01349 17.5 4.37501 17.5 3.4037 16.5513C3.22783 16.3796 3.07149 16.1889 2.93756 15.9827C2.19784 14.8442 2.51918 13.2376 3.16184 10.0242Z" stroke="#2D3B36"/>
<path opacity="0.5" d="M12.5 8.33366C12.9603 8.33366 13.3334 7.96056 13.3334 7.50033C13.3334 7.04009 12.9603 6.66699 12.5 6.66699C12.0398 6.66699 11.6667 7.04009 11.6667 7.50033C11.6667 7.96056 12.0398 8.33366 12.5 8.33366Z" fill="#2D3B36"/>
<path opacity="0.5" d="M7.50002 8.33366C7.96026 8.33366 8.33335 7.96056 8.33335 7.50033C8.33335 7.04009 7.96026 6.66699 7.50002 6.66699C7.03978 6.66699 6.66669 7.04009 6.66669 7.50033C6.66669 7.96056 7.03978 8.33366 7.50002 8.33366Z" fill="#2D3B36"/>
<path opacity="0.5" d="M7.5 5.00033V4.16699C7.5 2.78628 8.61925 1.66699 10 1.66699C11.3807 1.66699 12.5 2.78628 12.5 4.16699V5.00033" stroke="#2D3B36" stroke-linecap="round"/>
</svg>
