<svg width="90" height="90" viewBox="0 0 90 90" fill="none" xmlns="http://www.w3.org/2000/svg">
<rect x="5" y="5" width="80" height="80" rx="40" fill="#2D3B36"/>
<rect x="1" y="1" width="88" height="88" rx="44" stroke="#2D3B36" stroke-linecap="round" stroke-dasharray="0.5 4"/>
<g clip-path="url(#clip0_97_13)">
<path d="M58.3333 44.9048C58.3333 37.604 52.3738 31.6673 45 31.6673C37.6261 31.6673 31.6666 37.604 31.6666 44.9048C31.6666 46.888 31.911 48.1646 32.214 49.0982C32.4158 49.7195 32.9019 49.1078 33.1411 48.8835C34.7778 47.3478 37.3368 47.3843 38.9289 48.9663C41.2969 51.319 43.481 54.5823 40.4634 57.5823C38.8435 59.193 36.4037 59.8628 34.5472 58.1281C32.1506 55.8886 30.0681 53.2827 29.0436 50.1275C28.615 48.8073 28.3333 47.1755 28.3333 44.9048C28.3333 35.743 35.8053 28.334 45 28.334C54.1946 28.334 61.6666 35.743 61.6666 44.9048C61.6666 47.1755 61.385 48.8073 60.9563 50.1275C59.9318 53.2827 57.8493 55.8886 55.4528 58.1281C53.5961 59.8628 51.1565 59.193 49.5365 57.5823C46.519 54.5823 48.703 51.319 51.071 48.9663C52.6631 47.3843 55.2221 47.3478 56.8588 48.8835C57.3208 49.317 57.5476 49.8321 57.786 49.0982C58.089 48.1646 58.3333 46.888 58.3333 44.9048Z" fill="#EFF5E1"/>
</g>
<defs>
<clipPath id="clip0_97_13">
<rect width="40" height="40" fill="white" transform="translate(25 25)"/>
</clipPath>
</defs>
</svg>
