<svg width="20" height="20" viewBox="0 0 20 20" fill="none" xmlns="http://www.w3.org/2000/svg">
<path d="M17.9055 16.6403C16.6703 14.5059 14.7312 13.0083 12.4781 12.3731C13.5735 11.8163 14.4495 10.9067 14.9648 9.79113C15.48 8.67555 15.6045 7.41894 15.3182 6.22392C15.032 5.02891 14.3515 3.96514 13.3867 3.20415C12.4218 2.44316 11.2288 2.0293 9.99999 2.0293C8.77116 2.0293 7.57814 2.44316 6.6133 3.20415C5.64846 3.96514 4.96804 5.02891 4.68174 6.22392C4.39544 7.41894 4.51996 8.67555 5.03522 9.79113C5.55048 10.9067 6.42644 11.8163 7.52187 12.3731C5.26874 13.0075 3.32968 14.5051 2.09453 16.6403C2.06061 16.6936 2.03784 16.7533 2.02758 16.8157C2.01732 16.8781 2.01978 16.9419 2.03482 17.0033C2.04986 17.0647 2.07717 17.1224 2.1151 17.173C2.15303 17.2236 2.2008 17.266 2.25553 17.2976C2.31026 17.3292 2.37083 17.3495 2.43359 17.3571C2.49635 17.3647 2.56 17.3596 2.62072 17.3419C2.68143 17.3243 2.73796 17.2946 2.78689 17.2546C2.83583 17.2146 2.87616 17.1651 2.90546 17.109C4.40624 14.5161 7.05781 12.9684 9.99999 12.9684C12.9422 12.9684 15.5937 14.5161 17.0945 17.109C17.1238 17.1651 17.1642 17.2146 17.2131 17.2546C17.262 17.2946 17.3186 17.3243 17.3793 17.3419C17.44 17.3596 17.5036 17.3647 17.5664 17.3571C17.6292 17.3495 17.6897 17.3292 17.7445 17.2976C17.7992 17.266 17.847 17.2236 17.8849 17.173C17.9228 17.1224 17.9501 17.0647 17.9652 17.0033C17.9802 16.9419 17.9827 16.8781 17.9724 16.8157C17.9622 16.7533 17.9394 16.6936 17.9055 16.6403ZM5.46875 7.49966C5.46875 6.60346 5.7345 5.72739 6.2324 4.98223C6.7303 4.23707 7.43798 3.65629 8.26596 3.31333C9.09394 2.97037 10.005 2.88064 10.884 3.05548C11.763 3.23032 12.5704 3.66188 13.2041 4.29558C13.8378 4.92929 14.2693 5.73668 14.4442 6.61566C14.619 7.49463 14.5293 8.40572 14.1863 9.2337C13.8434 10.0617 13.2626 10.7694 12.5174 11.2673C11.7723 11.7652 10.8962 12.0309 9.99999 12.0309C8.79868 12.0295 7.64698 11.5516 6.79752 10.7021C5.94806 9.85268 5.47019 8.70098 5.46875 7.49966Z" fill="#2D3B36"/>
</svg>
